<svg width="243" height="71" viewBox="0 0 243 71" fill="none" xmlns="http://www.w3.org/2000/svg">
<rect width="243" height="71" fill="#3DCD58"/>
<path d="M31.1332 40.4803H24.8394V29.6769C24.8394 29.2549 24.8394 28.6641 24.159 28.6641C23.4786 28.6641 23.4786 29.2549 23.4786 29.6769V40.5647C23.4786 41.4932 23.5637 41.5776 24.5843 41.5776H31.0481C31.4734 41.5776 32.0687 41.5776 32.0687 41.0712C32.1538 40.4803 31.5584 40.4803 31.1332 40.4803Z" fill="white"/>
<path d="M33.9412 32.124C33.3459 32.124 33.3459 32.6304 33.3459 33.0524V40.9018C33.3459 41.3238 33.3459 41.8303 33.9412 41.8303C34.5366 41.8303 34.5366 41.3238 34.5366 40.9018V33.0524C34.5366 32.7148 34.5366 32.124 33.9412 32.124Z" fill="white"/>
<path d="M33.9404 29.001C33.5151 29.001 33.1749 29.3386 33.1749 29.6762C33.1749 30.0982 33.5151 30.3514 33.9404 30.3514C34.3656 30.3514 34.7058 30.0138 34.7058 29.6762C34.7058 29.3386 34.3656 29.001 33.9404 29.001Z" fill="white"/>
<path d="M39.8946 32.3771H38.6188V31.533C38.6188 30.3514 38.7039 29.5918 40.1498 29.5918C40.2348 29.5918 40.4049 29.5918 40.575 29.5918C40.7451 29.5918 40.9152 29.5918 41.0003 29.5918C41.3405 29.5918 41.5106 29.3386 41.5106 29.0854C41.5106 29.0854 41.5106 28.8322 41.2554 28.6634C41.0003 28.579 40.4049 28.4102 39.8096 28.4102C39.3843 28.4102 38.959 28.4946 38.6188 28.6634C38.1936 28.8322 37.9384 29.0854 37.7683 29.423C37.6833 29.5918 37.5132 30.0138 37.5132 31.111V32.3771H36.4075C36.2374 32.3771 35.6421 32.3771 35.6421 32.7991C35.6421 33.2211 36.1524 33.2211 36.4075 33.2211H37.4281V40.9017C37.4281 41.3237 37.4281 41.8301 38.0235 41.8301C38.6188 41.8301 38.6188 41.3237 38.6188 40.9017V33.2211H39.8946C40.4049 33.2211 40.6601 33.0523 40.6601 32.7991C40.6601 32.3771 40.1498 32.3771 39.8946 32.3771Z" fill="white"/>
<path d="M49.59 36.3441C49.59 36.2597 49.59 35.2469 48.9946 34.2341C48.6544 33.6433 48.2292 33.1368 47.7189 32.7992C47.6338 32.7992 47.6338 32.7148 47.5488 32.7148C47.5488 32.7148 47.4637 32.6304 47.3787 32.6304C47.2086 32.546 47.1235 32.546 46.9534 32.4616C46.8684 32.4616 46.8684 32.4616 46.7833 32.3772C46.6132 32.2928 46.4431 32.2928 46.273 32.2084H46.188C46.0179 32.2084 45.7627 32.124 45.5926 32.124C45.5926 32.124 45.5926 32.124 45.5076 32.124C45.4225 32.124 45.2524 32.124 45.1674 32.124C43.7215 32.124 42.5308 32.546 41.7653 33.4745C40.9999 34.3185 40.5746 35.5001 40.5746 36.9349C40.5746 38.3698 40.9999 39.5514 41.6803 40.3954C42.1056 40.8174 42.5308 41.155 43.1262 41.4082C43.7215 41.6614 44.4019 41.7458 45.1674 41.7458C46.9534 41.7458 47.974 41.0706 48.4843 40.4798C49.0797 39.8046 49.3348 39.1294 49.3348 38.9606C49.3348 38.7074 49.0797 38.4542 48.7395 38.4542C48.4843 38.4542 48.2292 38.623 48.1441 38.8762C47.8039 39.7202 47.2936 40.2266 46.5282 40.5642C46.1029 40.733 45.6777 40.8174 45.1674 40.8174C44.0617 40.8174 43.2963 40.4798 42.7009 39.7202C42.1906 39.045 41.8504 38.1166 41.8504 37.0193H48.3993C49.0797 37.1037 49.59 37.1037 49.59 36.3441ZM41.9355 36.1753C42.1056 34.9937 42.9561 33.0524 45.1674 33.0524C47.974 33.0524 48.2292 35.4157 48.3142 36.1753H41.9355Z" fill="white"/>
<path d="M55.7146 28.6641C55.0342 28.6641 55.0342 29.2549 55.0342 29.6769V40.818C55.0342 41.24 55.0342 41.8308 55.7146 41.8308C56.395 41.8308 56.395 41.24 56.395 40.818V29.5925C56.395 29.1705 56.395 28.6641 55.7146 28.6641Z" fill="white"/>
<path d="M77.657 35.4163C78.0823 35.4163 78.3374 35.0787 78.3374 34.7411V27.0605H76.9766V34.7411C76.9766 34.9943 77.2318 35.4163 77.657 35.4163Z" fill="white"/>
<path d="M64.9001 37.0199C64.815 36.9355 64.73 36.9355 64.6449 36.9355H64.5599C63.8795 36.6823 63.114 36.4291 62.3486 36.3447C61.5831 36.1759 60.9027 36.0071 60.3924 35.7539C59.7971 35.5007 59.5419 35.0787 59.5419 34.5722C59.5419 33.5594 60.7326 33.1374 61.9233 33.1374C63.1991 33.1374 64.1346 33.6438 64.3898 34.4034C64.5599 34.9099 64.73 34.9943 64.9851 34.9943C65.4954 34.9943 65.5805 34.4878 65.5805 34.4878C65.5805 34.4034 65.4954 33.8126 64.9851 33.3062C64.73 32.9686 64.3047 32.7154 63.8795 32.5466C63.2841 32.2934 62.6888 32.209 61.8383 32.209C60.4775 32.209 59.4569 32.5466 58.8615 33.3062C58.2662 33.9814 58.2662 34.6566 58.2662 34.8254C58.2662 35.5007 58.6064 36.1759 59.2017 36.5135C59.7971 36.9355 60.3924 37.0199 61.6682 37.3575C62.0084 37.4419 62.3486 37.5263 62.7738 37.6107H62.8589C63.5393 37.7795 64.815 38.1171 64.815 39.2144C64.815 40.0584 63.9645 40.9868 62.0934 40.9868C60.7326 40.9868 59.7971 40.4804 59.2868 39.4676C59.1167 39.2144 59.0316 38.8767 58.6914 38.8767C58.5213 38.8767 58.4363 38.9611 58.2662 39.0456C58.1811 39.13 58.0961 39.2988 58.0961 39.3832C58.0961 39.8896 58.5213 40.6492 59.1167 41.1556C59.4569 41.4088 59.712 41.5776 60.1373 41.662C60.6476 41.8308 61.2429 41.9152 62.0084 41.9152C63.5393 41.9152 64.73 41.5776 65.4104 40.818C66.0057 40.1428 66.0908 39.3832 66.0908 39.13C66.1758 38.1171 65.7506 37.4419 64.9001 37.0199Z" fill="white"/>
<path d="M93.2205 33.1368C92.7952 32.7148 91.9447 32.124 90.4988 32.124C88.6277 32.124 87.8623 33.0524 87.2669 33.6433V32.968C87.2669 32.7148 87.2669 32.3772 87.0968 32.2084H87.0118C86.9267 32.124 86.8417 32.124 86.6716 32.124C86.0762 32.124 86.0762 32.6304 86.0762 33.0524V40.9018C86.0762 41.3238 86.0762 41.8303 86.6716 41.8303C86.8417 41.8303 86.9267 41.8303 87.0118 41.7459H87.0968C87.2669 41.577 87.2669 41.2394 87.2669 40.9862V37.6102C87.2669 36.0909 87.352 35.3313 87.6071 34.7405C87.8623 34.2341 88.2875 33.8121 88.7978 33.5589C89.3081 33.3057 89.9035 33.1368 90.4138 33.1368C91.2643 33.1368 91.9447 33.4745 92.37 33.9809C92.7102 34.4873 92.7952 35.1625 92.7952 35.8377V40.9018C92.7952 41.155 92.7952 41.4926 92.9653 41.6615H93.0504C93.1354 41.7459 93.2205 41.7459 93.3906 41.7459C93.9859 41.7459 93.9859 41.2394 93.9859 40.8174V35.5001C93.9859 35.0781 93.9859 33.8965 93.2205 33.1368Z" fill="white"/>
<path d="M79.5281 28.4951V29.8455C81.7394 30.6052 83.3554 32.7152 83.3554 35.1629C83.3554 38.2858 80.8039 40.7334 77.657 40.7334C74.5102 40.7334 72.0437 38.2013 72.0437 35.1629C72.0437 32.7152 73.5746 30.6896 75.7009 29.93V28.5795C72.8091 29.4235 70.7679 32.04 70.7679 35.1629C70.7679 38.961 73.9148 41.9994 77.657 41.9994C81.4843 41.9994 84.5461 38.8766 84.5461 35.1629C84.6311 31.9556 82.5049 29.2547 79.5281 28.4951Z" fill="white"/>
<path d="M129.961 29.9299C127.665 28.9171 126.304 28.4951 124.943 28.4951C123.498 28.4951 122.562 29.0015 122.562 29.7611C122.562 32.1244 130.727 31.4492 130.727 36.9353C130.727 39.9738 128.175 41.7462 124.603 41.7462C121.797 41.7462 120.436 40.9866 118.82 40.227V36.8509C121.116 38.3701 122.477 38.8765 124.263 38.8765C125.794 38.8765 126.644 38.3701 126.644 37.4417C126.644 34.8252 118.48 35.8381 118.48 30.0987C118.48 27.3979 120.861 25.541 124.518 25.541C126.304 25.541 127.92 25.8786 129.961 26.807V29.9299Z" fill="white"/>
<path d="M141.359 41.0705C139.999 41.5769 138.893 41.8301 137.702 41.8301C133.875 41.8301 131.494 39.6356 131.494 36.344C131.494 33.0523 134.045 30.7734 137.617 30.7734C138.723 30.7734 140.084 31.0266 141.274 31.4487V33.9807C140.424 33.4743 139.318 33.2211 138.553 33.2211C136.512 33.2211 135.236 34.4027 135.236 36.2596C135.236 38.1164 136.512 39.3824 138.468 39.3824C139.318 39.3824 139.999 39.2136 141.53 38.6228V41.0705" fill="white"/>
<path d="M172.913 30.6895C169.596 30.6895 167.215 33.0527 167.215 36.26C167.215 39.5517 169.682 41.7461 173.424 41.7461C174.274 41.7461 176.315 41.7461 178.187 40.3113V38.2856C176.571 39.3829 175.55 39.8049 174.189 39.8049C172.063 39.8049 170.787 38.7076 170.617 36.8508H178.357C178.612 32.8839 176.06 30.6895 172.913 30.6895ZM170.872 35.0784C171.042 33.5591 171.893 32.7151 173.169 32.7151C174.444 32.7151 175.38 33.5591 175.465 35.0784H170.872Z" fill="white"/>
<path d="M183.204 30.8584H179.802V41.5775H183.204V30.8584Z" fill="white"/>
<path d="M192.56 25.7939V31.3645C191.625 30.9425 190.774 30.6893 189.753 30.6893C186.692 30.6893 184.565 32.9681 184.565 36.2598C184.565 39.4671 186.692 41.8303 189.583 41.8303C190.689 41.8303 191.625 41.4927 192.56 40.7331V41.5771H195.962V25.7939H192.56ZM192.56 38.7075C191.88 39.2983 191.284 39.5515 190.519 39.5515C188.903 39.5515 187.882 38.2854 187.882 36.3442C187.882 34.2341 188.903 32.9681 190.604 32.9681C191.199 32.9681 192.05 33.2213 192.475 33.5589V38.7075H192.56Z" fill="white"/>
<path d="M203.107 30.6895C199.79 30.6895 197.408 33.0527 197.408 36.26C197.408 39.5517 199.875 41.7461 203.617 41.7461C204.467 41.7461 206.509 41.7461 208.465 40.3113V38.2856C206.849 39.3829 205.828 39.8049 204.467 39.8049C202.341 39.8049 201.065 38.7076 200.895 36.8508H208.635C208.805 32.8839 206.253 30.6895 203.107 30.6895ZM200.98 35.0784C201.15 33.5591 202.001 32.7151 203.277 32.7151C204.552 32.7151 205.488 33.5591 205.658 35.0784H200.98Z" fill="white"/>
<path d="M213.737 33.9811C214.757 31.7867 215.948 30.6895 217.224 30.6895C217.904 30.6895 218.499 30.9427 219.435 31.7023L218.499 34.6563C217.649 34.0655 217.053 33.8967 216.458 33.8967C215.182 33.8967 214.417 35.0784 213.651 37.0196V41.6617H210.249V30.8583H213.651V33.9811" fill="white"/>
<path d="M183.374 26.3851C183.714 27.2291 183.119 28.4107 182.098 29.0015C181.078 29.5923 179.972 29.4235 179.717 28.5795C179.377 27.7355 179.972 26.5539 180.993 25.9631C181.928 25.3722 183.034 25.541 183.374 26.3851Z" fill="white"/>
<path d="M153.522 34.8255C153.522 31.9559 151.566 30.7742 149.609 30.7742C148.249 30.7742 147.143 31.365 146.207 32.5467H146.122V25.8789H142.72V41.6621H146.122V34.9099C146.888 33.8127 147.568 33.3063 148.419 33.3063C149.439 33.3063 150.205 34.0659 150.205 35.6695V39.4676C151.31 38.8768 152.501 38.5392 153.607 38.3704V34.8255" fill="white"/>
<path d="M162.026 30.6895C160.665 30.6895 159.56 31.1959 158.539 32.4619V30.9427H155.137V38.2012C156.328 38.2856 157.773 38.8764 158.539 39.7205V34.7407C159.389 33.3903 160.07 32.9683 160.92 32.9683C161.856 32.9683 162.621 33.5591 162.621 35.0784V41.5773H166.023V34.8252C165.938 31.6179 163.642 30.6895 162.026 30.6895Z" fill="white"/>
<path d="M167.811 44.6162H163.814V47.4015H167.641V48.5831H163.814V51.4528H167.896V52.6344H162.538V43.4346H167.811V44.6162Z" fill="white"/>
<path d="M172.147 43.4346H170.957V52.6344H172.147V43.4346Z" fill="white"/>
<path d="M176.486 49.7643H180.739C180.739 47.4855 179.718 46.4727 178.102 46.4727C176.401 46.4727 175.296 47.7387 175.296 49.5111C175.296 51.1992 176.316 52.7184 178.273 52.7184C179.293 52.7184 179.974 52.4652 180.739 52.0432V50.8616C180.059 51.368 179.293 51.6212 178.613 51.6212C177.337 51.6212 176.657 51.0304 176.486 49.7643ZM178.187 47.4855C179.038 47.4855 179.548 48.0763 179.633 49.0047H176.572C176.657 48.0763 177.252 47.4855 178.187 47.4855Z" fill="white"/>
<path d="M188.648 48.1607C187.967 47.6543 187.457 47.5699 186.947 47.5699C185.841 47.5699 185.076 48.4139 185.076 49.6799C185.076 50.946 185.926 51.7056 187.117 51.7056C187.627 51.7056 188.137 51.5368 188.733 51.2836V52.4652C188.307 52.634 187.542 52.8028 186.947 52.8028C185.161 52.8028 183.885 51.5368 183.885 49.7643C183.885 47.7387 185.076 46.4727 186.862 46.4727C187.542 46.4727 188.052 46.6415 188.648 46.8947V48.1607Z" fill="white"/>
<path d="M194.174 46.5566H196.131V47.6539H194.174V50.7767C194.174 51.4519 194.685 51.7052 195.025 51.7052C195.45 51.7052 195.875 51.5363 196.386 51.2831V52.3804C195.961 52.6336 195.28 52.8024 194.94 52.8024C193.664 52.8024 192.984 51.9584 192.984 50.8611V47.6539H191.963V47.5695L194.26 45.375V46.5566" fill="white"/>
<path d="M200.639 46.5571V47.9919C201.235 46.8947 201.83 46.4727 202.425 46.4727C202.936 46.4727 203.361 46.7259 203.871 47.1479L203.191 48.1607C202.851 47.8231 202.34 47.5699 202.085 47.5699C201.235 47.5699 200.639 48.4139 200.639 49.4267V52.634H199.449V46.5571H200.639Z" fill="white"/>
<path d="M216.29 48.1607C215.609 47.6543 215.099 47.5699 214.589 47.5699C213.483 47.5699 212.717 48.4139 212.717 49.6799C212.717 50.946 213.568 51.7056 214.759 51.7056C215.269 51.7056 215.779 51.5368 216.375 51.2836V52.4652C215.949 52.634 215.184 52.8028 214.589 52.8028C212.802 52.8028 211.527 51.5368 211.527 49.7643C211.527 47.7387 212.717 46.4727 214.503 46.4727C215.184 46.4727 215.694 46.6415 216.29 46.8947V48.1607Z" fill="white"/>
<path d="M208.293 46.5566H207.102V52.6336H208.293V46.5566Z" fill="white"/>
<path d="M208.378 44.3631C208.463 44.6163 208.293 45.0383 207.953 45.2915C207.613 45.5447 207.188 45.4603 207.103 45.1227C207.018 44.7851 207.188 44.4475 207.528 44.1943C207.868 44.0255 208.208 44.1099 208.378 44.3631Z" fill="white"/>
<path d="M155.223 47.4009L155.563 46.0504H158.88C159.305 44.1092 158.965 42.3367 157.775 41.2395C155.393 38.8763 150.46 39.7203 146.803 43.1808C146.208 43.6872 145.782 44.278 145.272 44.8688H147.313L146.888 46.2192H144.507C144.252 46.6412 144.081 47.0633 143.911 47.4853H146.718L146.293 48.8357H143.486C142.976 50.8613 143.316 52.7182 144.507 53.8998C146.803 56.1787 151.736 55.4191 155.478 51.8742C156.159 51.2834 156.669 50.6081 157.094 49.9329H154.543L154.968 48.5825H157.945C158.2 48.1605 158.37 47.7385 158.54 47.3165H155.223V47.4009ZM154.458 44.8688C154.288 44.8688 154.117 44.8688 154.032 45.0376C154.032 45.0376 153.947 45.122 153.947 45.2064L152.927 49.2577C152.672 50.6925 150.885 52.1274 148.589 52.1274H147.313H145.357L145.953 50.0173H147.994C148.164 50.0173 148.334 49.9329 148.504 49.7641C148.589 49.6797 148.589 49.5953 148.589 49.5109L149.44 45.966C149.695 44.5312 151.226 42.9276 153.522 42.9276H156.754L156.329 44.8688H154.458Z" fill="white"/>
<path d="M106.573 15.4131H105.893V55.5884H106.573V15.4131Z" fill="white"/>
</svg>
